<?xml version="1.0" encoding="utf-8"?>
<svg viewBox="0 0 500 500" xmlns="http://www.w3.org/2000/svg">
  <path style="fill:#32BEA6;" d="M 496.004 247.904 C 496.004 110.904 384.904 -0.196 247.904 -0.196 C 110.904 -0.196 -0.196 110.904 -0.196 247.904 C -0.196 384.904 110.904 496.004 247.904 496.004 C 384.904 496.004 496.004 384.904 496.004 247.904 Z"/>
  <path style="fill:#487206;" d="M 146.704 215.504 C 146.204 217.004 144.604 217.804 143.204 217.304 L 98.204 202.804 C 96.704 202.304 95.904 200.704 96.404 199.304 L 98.304 193.104 L 148.604 209.304 L 146.704 215.504 Z"/>
  <path style="fill:#F2B906;" d="M 155.604 404.804 L 154.104 415.304 C 154.104 415.304 186.604 428.504 247.504 428.504 C 308.404 428.504 341.604 415.304 341.604 415.304 L 340.104 404.804 L 155.604 404.804 Z"/>
  <path style="fill:#EFCE0F;" d="M 386.104 148.904 C 380.404 113.804 361.204 109.304 361.204 109.304 L 289.104 79.904 L 279.304 75.104 L 248.204 72.604 L 216.504 75.204 L 206.704 80.004 L 134.604 109.404 C 134.604 109.404 115.504 113.904 109.704 149.004 L 98.304 193.204 L 148.604 209.404 L 154.404 190.404 C 154.404 190.404 175.504 249.804 155.704 404.904 C 155.704 404.904 187.304 418.004 247.604 418.004 C 307.904 418.004 340.204 404.904 340.204 404.904 C 320.404 249.804 341.504 190.404 341.504 190.404 L 347.304 209.404 L 397.604 193.204 L 386.104 148.904 Z"/>
  <polygon style="fill:#C49F05;" points="289.104 90.504 282.304 75.104 248.204 72.604 213.504 75.104 206.704 90.504 238.004 123.004 257.804 123.004"/>
  <path style="fill:#487206;" d="M 349.104 215.504 C 349.604 217.004 351.204 217.804 352.604 217.304 L 397.604 202.804 C 399.104 202.304 399.904 200.704 399.404 199.304 L 397.504 193.104 L 347.204 209.304 L 349.104 215.504 Z"/>
  <path style="fill:#578408;" d="M 285.504 78.404 C 285.504 78.404 270.704 76.504 248.204 76.504 C 225.704 76.504 210.404 78.404 210.404 78.404 L 216.404 71.704 C 216.404 71.704 227.204 70.004 248.204 70.004 C 269.304 70.004 279.604 71.704 279.604 71.704 L 285.504 78.404 Z"/>
  <path style="fill:#487206;" d="M 279.604 71.604 C 279.604 71.604 295.504 84.204 287.204 97.304 C 278.904 110.404 252.204 131.404 252.204 131.404 L 248.204 121.104 C 248.104 121.104 293.604 94.304 279.604 71.604 Z"/>
  <path style="fill:#416305;" d="M 216.304 71.604 C 216.304 71.604 200.304 84.204 208.604 97.304 C 216.904 110.404 243.604 131.404 243.604 131.404 L 248.104 121.104 C 248.104 121.104 202.304 94.304 216.304 71.604 Z"/>
  <polygon style="fill:#487206;" points="252.204 140.804 243.504 140.804 243.504 124.404 248.104 121.104 252.204 121.104"/>
  <g transform="matrix(1, 0, 0, 1, -0.195825, -0.195826)"/>
  <g transform="matrix(1, 0, 0, 1, -0.195825, -0.195826)"/>
  <g transform="matrix(1, 0, 0, 1, -0.195825, -0.195826)"/>
  <g transform="matrix(1, 0, 0, 1, -0.195825, -0.195826)"/>
  <g transform="matrix(1, 0, 0, 1, -0.195825, -0.195826)"/>
  <g transform="matrix(1, 0, 0, 1, -0.195825, -0.195826)"/>
  <g transform="matrix(1, 0, 0, 1, -0.195825, -0.195826)"/>
  <g transform="matrix(1, 0, 0, 1, -0.195825, -0.195826)"/>
  <g transform="matrix(1, 0, 0, 1, -0.195825, -0.195826)"/>
  <g transform="matrix(1, 0, 0, 1, -0.195825, -0.195826)"/>
  <g transform="matrix(1, 0, 0, 1, -0.195825, -0.195826)"/>
  <g transform="matrix(1, 0, 0, 1, -0.195825, -0.195826)"/>
  <g transform="matrix(1, 0, 0, 1, -0.195825, -0.195826)"/>
  <g transform="matrix(1, 0, 0, 1, -0.195825, -0.195826)"/>
  <g transform="matrix(1, 0, 0, 1, -0.195825, -0.195826)"/>
  <text style="white-space: pre; fill: rgb(51, 51, 51); font-family: Arial, sans-serif; font-size: 16.8px;" x="223.353" y="162.874">ELIZIO<tspan x="223.35299682617188" dy="1em">​</tspan><tspan x="223.35299682617188" dy="1em">​</tspan></text>
</svg>